<svg xmlns="http://www.w3.org/2000/svg" viewBox="0 0 905.8 407.79"><defs><style>.cls-1{fill:#fff;}</style></defs><title>Ativo 3</title><g id="Camada_2" data-name="Camada 2"><g id="Camada_1-2" data-name="Camada 1"><path class="cls-1" d="M182.17,214.44a3.92,3.92,0,0,1,4.79,1.07,6,6,0,0,1,1.8,5,6.28,6.28,0,0,1-2.49,4.44q-6.54,5.09-21.48,13.77a349.66,349.66,0,0,1-32.91,16.75q-18,8.06-31.84,6.84T85.79,246.66c-.33.27-.62.53-.88.79Q74.36,257,61.57,267.51A179,179,0,0,1,36.37,285q-12.4,7-21.87,6.2T1.12,277.33q-3.61-14.85,4.44-28.86a73.54,73.54,0,0,1,22.66-24,78.22,78.22,0,0,1,30.56-12.89q16-2.88,28.18,4.44a9.47,9.47,0,0,1,4.1,5.08c.59-.33,1.17-.69,1.76-1.08a12.24,12.24,0,0,1,2.54-1.46,9.05,9.05,0,0,1,6.1-.44,8.68,8.68,0,0,1,5.08,3.32c1.2,1.66,1.38,3.7.54,6.1q-4.89,12.79,1.22,15t16.3-1.12a186.81,186.81,0,0,0,22.61-9.38Q159.61,226.06,182.17,214.44ZM23.68,262.88q-1.47,6.93.24,7.37T32,267.07q6.39-3.6,20.11-14.45A226.22,226.22,0,0,0,75,232.21q-10.25-3.32-21.53.73a48.67,48.67,0,0,0-19.82,13.53Q25.14,255.94,23.68,262.88Z"/><path class="cls-1" d="M325.83,2.13a5.82,5.82,0,0,1,6.05-1.9A8.31,8.31,0,0,1,337,4.13a5.73,5.73,0,0,1-.29,6.3q-35,50.3-67.88,102.45-17.67,27.74-35.54,55Q211,201.55,189.3,235.63q12.8-8.88,25.1-10.94t21.29,8.3a30.43,30.43,0,0,1,5.47,9.87,34.79,34.79,0,0,1,1.66,10.64q7.41-3.31,15.33-7,17.09-7.91,34.37-15.33a280.22,280.22,0,0,1,32-11.72,4.28,4.28,0,0,1,3.56.88,6.45,6.45,0,0,1,2.34,3,2.18,2.18,0,0,1-.63,2.74,393.08,393.08,0,0,1-40.23,23.73q-22.28,11.52-43.17,21.48c-3.19,1.57-6.28,3.06-9.28,4.5a131.9,131.9,0,0,1-20.06,29.68A268.85,268.85,0,0,1,191.45,331,265,265,0,0,1,170,348.13q-6.84,5-14.9,9.72a54.26,54.26,0,0,1-16.6,6.49,27,27,0,0,1-16.94-2,9.3,9.3,0,0,1-5.37-8.5,26.94,26.94,0,0,1,2.44-11.42,33.23,33.23,0,0,1,5.27-8.79,272,272,0,0,1,44.63-38.43,431.4,431.4,0,0,1,54.1-32,38.08,38.08,0,0,0,1-10.74Q222,241.09,211.42,244t-23.53,12.16a254.7,254.7,0,0,0-21.54,17,160.35,160.35,0,0,1-10.5,17.09,48.49,48.49,0,0,1-14.2,13.38,5.16,5.16,0,0,1-5.42,0,5.73,5.73,0,0,1-2.88-4.74,52.78,52.78,0,0,1,6.83-24.56,190,190,0,0,1,14.65-22.61q4.2-5.76,7.81-11.23,30.77-47.26,62.4-94,12.71-18.94,25.39-38.28,17.77-27.34,36.33-54.25T325.83,2.13ZM150.92,339.34q12.32-6.93,28.32-19.73A186.94,186.94,0,0,0,208.05,291c-.78.46-1.59.91-2.44,1.37q-2.06,1.06-4,2.24-21.2,12.4-41.21,26.57c-2.54,1.88-5.52,4.28-8.94,7.17s-6.57,5.8-9.47,8.7a43,43,0,0,0-6,6.93c-1.07,1.72-.54,2.34,1.61,1.85S144.22,343.18,150.92,339.34Z"/><path class="cls-1" d="M428.76,222.05q3-2.24,5.9-1.17a6.47,6.47,0,0,1,4,3.86q1.06,2.79-1.56,5.52-14.46,13.38-37.6,21.58t-43.85,1.86a85.87,85.87,0,0,1-17.33,25.24,50.91,50.91,0,0,1-25.93,14.5q-10.16,1.56-16-4.2a27.25,27.25,0,0,1-7.57-14.74,36.93,36.93,0,0,1,.64-17.19,74.55,74.55,0,0,1,15.48-27.88,58.46,58.46,0,0,1,26.32-17.24,7.5,7.5,0,0,1,2.24-1,6.11,6.11,0,0,1,1.08-.1h.88a6,6,0,0,1,1-.3,5.89,5.89,0,0,1,1.47-.39,8.9,8.9,0,0,1,4.39.49q9.48,1.17,14.16,8t4.2,16.65a57.25,57.25,0,0,0,11.28,3.76,42.29,42.29,0,0,0,10,1.22A72.43,72.43,0,0,0,428.76,222.05ZM310,274.79a45.06,45.06,0,0,0,16.55-10.4,56.32,56.32,0,0,0,11.57-15.87q1.08-2.25,2.25-4.88a36.38,36.38,0,0,1-3.62-4.2c-1.62-2.54-2.1-4.85-1.41-6.94a8.61,8.61,0,0,1,4-4.88h-.88q-18.45,6.25-26.85,24.22-.39.89-1.47,4.59a84,84,0,0,0-1.9,8.2,31.47,31.47,0,0,0-.64,7.57C307.79,274.25,308.57,275.12,310,274.79Z"/><path class="cls-1" d="M900,122.05q-18.47-.58-36.82-1.26-77.93-3.62-154.69-2.64-42.57,59.17-84,119.14-17.88,26.37-35.16,53.51Q570.16,320.79,550,350A640,640,0,0,1,507,405.84c-1.7,1.7-3.42,2.28-5.18,1.76a6.63,6.63,0,0,1-4.05-3.37,6.17,6.17,0,0,1-.15-5.61A618.55,618.55,0,0,1,542,321.71q25.25-37.35,52.1-73.29,15.13-20.59,29.68-40.92,31.65-44.52,63.87-88.67c-1.3.07-2.46.12-3.46.15s-2.17.08-3.47.15q-34.58,34.56-71.29,68t-67.24,53.23q-30.51,19.81-46.53,13.86a12.36,12.36,0,0,1-5.91-5.42,19.33,19.33,0,0,1-2.15-7.17,44.3,44.3,0,0,1,.25-8.89q-6.15,6.26-17,16.89t-19.1,18c-.78.65-1.66,1.4-2.63,2.25a169.34,169.34,0,0,1-14.41,12,49.9,49.9,0,0,1-17.38,8.84q-8.64,2.25-14.21-5.57-6.35-11.13-.54-25.73a113.87,113.87,0,0,1,16.22-27.93,176,176,0,0,1,18.11-20.46c3.13-2.6,6.23-3.32,9.33-2.15a10.42,10.42,0,0,1,6.34,6.35q1.71,4.59-2.39,9.08a146.17,146.17,0,0,0-23.34,32.72,28.35,28.35,0,0,1-1.85,2.54q-1.27,1.76-2.74,3.81a23.66,23.66,0,0,0-2.15,3.51c-.45,1-.42,1.48.1,1.52s1.86-.64,4-2A203.22,203.22,0,0,0,445,249.2a11,11,0,0,0,1-.88q2.64-2.43,6.35-6,6.65-6.84,15.14-14.16a64.83,64.83,0,0,1,17.28-11q8.79-3.66,16.12.74a10.76,10.76,0,0,1,3.32,3.17,6.11,6.11,0,0,1,1.07,4.35q-2.06,14.75,11.13,10.44T552.78,214q23.24-17.53,51.37-42.43t56-51.37a852.34,852.34,0,0,0-87.79,10.16q-5,.58-7.67-2.79a9,9,0,0,1-2-7.27q.64-3.92,5.62-5,54.88-9.37,111.23-13.58,46-44.53,66-64.84l7.23-7.23a1,1,0,0,1,.68-.19c.79-1,1.57-2.05,2.35-3,1-1.5,2.11-3,3.22-4.4q3.23-3.9,7.47-3.36a9,9,0,0,1,6.54,3.76q2.29,3.21-.53,7.42-21.78,29.88-43.36,60-3.52,4.88-7,9.67a897.86,897.86,0,0,1,179.59,10.93,4.7,4.7,0,0,1,3.95,3.52,7.05,7.05,0,0,1-.78,5.47A5.15,5.15,0,0,1,900,122.05ZM698.19,100.57a6.09,6.09,0,0,0,1.07-.1q.88,0,1.86-.09L706.59,93q1.26-1.76,2.63-3.61Z"/></g></g></svg>