<svg xmlns="http://www.w3.org/2000/svg" viewBox="0 0 544.19 469.99"><defs><style>.cls-1{fill:#fff;}</style></defs><title>Ativo 5</title><g id="Camada_2" data-name="Camada 2"><g id="Camada_1-2" data-name="Camada 1"><path class="cls-1" d="M209.67,2.13a5.83,5.83,0,0,1,6.06-1.9,8.29,8.29,0,0,1,5.07,3.9,5.69,5.69,0,0,1-.29,6.3q-35,50.3-67.87,102.45-17.67,27.74-35.55,55-22.26,33.69-43.94,67.77,12.8-8.88,25.1-10.94t21.28,8.3a30.25,30.25,0,0,1,5.47,9.87,34.49,34.49,0,0,1,1.66,10.64q7.43-3.31,15.34-7,17.08-7.91,34.37-15.33a280.12,280.12,0,0,1,32-11.72,4.29,4.29,0,0,1,3.57.88,6.45,6.45,0,0,1,2.34,3,2.2,2.2,0,0,1-.63,2.74,393.27,393.27,0,0,1-40.24,23.73q-22.26,11.52-43.16,21.48c-3.19,1.57-6.29,3.06-9.28,4.5a132.28,132.28,0,0,1-20.07,29.68A268.79,268.79,0,0,1,75.3,331a263.1,263.1,0,0,1-21.49,17.09q-6.83,5-14.89,9.72a54.26,54.26,0,0,1-16.6,6.49,27,27,0,0,1-16.95-2A9.33,9.33,0,0,1,0,353.79a27.09,27.09,0,0,1,2.44-11.42,33.49,33.49,0,0,1,5.28-8.79,272,272,0,0,1,44.63-38.43,430.69,430.69,0,0,1,54.1-32,38.45,38.45,0,0,0,1-10.74q-1.58-11.34-12.16-8.45T71.73,256.14a256,256,0,0,0-21.53,17,160.35,160.35,0,0,1-10.5,17.09A48.53,48.53,0,0,1,25.49,303.6a5.16,5.16,0,0,1-5.42,0,5.77,5.77,0,0,1-2.88-4.74A52.91,52.91,0,0,1,24,274.35a188.73,188.73,0,0,1,14.65-22.61q4.2-5.76,7.81-11.23,30.76-47.26,62.4-94,12.69-18.94,25.39-38.28,17.78-27.34,36.33-54.25T209.67,2.13ZM34.77,339.34q12.3-6.93,28.32-19.73A186.94,186.94,0,0,0,91.9,291c-.78.46-1.6.91-2.44,1.37q-2.05,1.06-4,2.24Q64.26,307,44.24,321.18c-2.54,1.88-5.52,4.28-8.93,7.17s-6.58,5.8-9.48,8.7A43.32,43.32,0,0,0,19.88,344q-1.62,2.58,1.61,1.85T34.77,339.34Z"/><path class="cls-1" d="M344.53,33.09q3.72-3.9,7.77-2.39a9.7,9.7,0,0,1,5.76,5.76q1.71,4.24-1.61,8.64A1756.9,1756.9,0,0,0,215.63,233.38q-23.34,36.83-43.95,75.69-18.84,32.81-25.44,44.48t-26.71,43.31a4.35,4.35,0,0,1-3.41,2,4.22,4.22,0,0,1-4.3-5.22q2.25-16,18.65-50.64a684.06,684.06,0,0,1,33.11-62.11q16.69-27.48,34.57-52.68,7.23-10.26,14-20.12,31.06-45.4,63.82-89.36T344.53,33.09Z"/><path class="cls-1" d="M377.44,222.05q3-2.24,5.91-1.17a6.47,6.47,0,0,1,4,3.86q1.06,2.79-1.56,5.52-14.46,13.38-37.6,21.58T304.3,253.7A85.87,85.87,0,0,1,287,278.94,50.91,50.91,0,0,1,261,293.44q-10.16,1.56-16-4.2a27.25,27.25,0,0,1-7.57-14.74,36.93,36.93,0,0,1,.64-17.19,74.55,74.55,0,0,1,15.48-27.88,58.46,58.46,0,0,1,26.32-17.24,7.5,7.5,0,0,1,2.24-1,6.11,6.11,0,0,1,1.08-.1h.88a6,6,0,0,1,1-.3,5.89,5.89,0,0,1,1.47-.39,8.9,8.9,0,0,1,4.39.49q9.48,1.17,14.16,8t4.2,16.65a57.25,57.25,0,0,0,11.28,3.76,42.29,42.29,0,0,0,10,1.22A72.39,72.39,0,0,0,377.44,222.05ZM258.69,274.79a45,45,0,0,0,16.56-10.4,56.32,56.32,0,0,0,11.57-15.87c.72-1.5,1.46-3.13,2.25-4.88a36.38,36.38,0,0,1-3.62-4.2Q283,235.63,284,232.5a8.61,8.61,0,0,1,4-4.88h-.88q-18.45,6.25-26.85,24.22-.39.89-1.47,4.59a84,84,0,0,0-1.9,8.2,31.47,31.47,0,0,0-.64,7.57C256.48,274.25,257.26,275.12,258.69,274.79Z"/><path class="cls-1" d="M542.39,229.09Q522.95,243.25,502,256.33t-42.68,26l-18.16,10.94a390.46,390.46,0,0,1-81.84,113.28q-4.68,4.59-10.35,10.64-11.62,12.31-26.22,25.59a141.12,141.12,0,0,1-30.37,21.38q-15.78,8.12-31,5a8.23,8.23,0,0,1-4.64-3.13,9.22,9.22,0,0,1-1.8-5.27q-.19-18.36,11-37.36a195.91,195.91,0,0,1,28.61-36.81A434.94,434.94,0,0,1,329.89,354q18-14.75,31.15-24.61Q394.15,304,430,280l1.57-3.72q2-4.39,3.71-9.08,3.23-9.57-1-11.37t-12,1a103.36,103.36,0,0,0-15.29,7q-7.51,4.2-10.84,6.55a170.68,170.68,0,0,1-20,11.91,95.81,95.81,0,0,1-23.59,8.84q-11.37,2.49-16.7-3.57t.73-25.39q6.64-19.14,24.61-33.64a91.31,91.31,0,0,1,39.65-18.9q21.69-4.38,39.75,6.74,4.68,3.42,4.78,8.11a11.75,11.75,0,0,1-2.93,8.2q8.5,3,11.48,12.06a29.57,29.57,0,0,1-.34,19l-.39.78a4.17,4.17,0,0,1-.3.78,519.87,519.87,0,0,1,86.23-43.85c1.63-.52,2.88-.32,3.76.59a4.94,4.94,0,0,1-.53,7.13ZM384,355.75a413.81,413.81,0,0,0,31.83-46.88A574.72,574.72,0,0,0,344.93,360a285.59,285.59,0,0,0-56.65,64.9q-9.57,15.92-5.61,17.18t14.79-5.66a265.36,265.36,0,0,0,21.93-15.72Q330.48,411.9,335,407.5q13-12.21,25.49-25A338.55,338.55,0,0,0,384,355.75ZM382.13,260q11.13-7.72,22.37-14.46a162.1,162.1,0,0,1,23.82-11.72,31.82,31.82,0,0,0-22.26-2.1,66.27,66.27,0,0,0-22,10.26,82.13,82.13,0,0,0-16.56,15c-2.66,3.25-4,5.52-3.9,6.79s.94,1.87,2.63,1.8a21.68,21.68,0,0,0,6-1.27,65.82,65.82,0,0,0,6.35-2.49A29.67,29.67,0,0,0,382.13,260Z"/></g></g></svg>