<svg xmlns="http://www.w3.org/2000/svg" viewBox="0 0 991.56 412.34"><defs><style>.cls-1{fill:#fff;}</style></defs><title>Ativo 6</title><g id="Camada_2" data-name="Camada 2"><g id="Camada_1-2" data-name="Camada 1"><path class="cls-1" d="M149.87,205.06Q133.27,224.3,119,244.42T93.91,281q-3,4.68-5.76,8.79-17.58,26.66-33.4,54.39Q35.7,377.63,14,409.16a8,8,0,0,1-6.3,3.18,8.39,8.39,0,0,1-6.2-2.3q-2.45-2.34-1-6.54a554.06,554.06,0,0,1,46.58-87.65q27.45-42.14,57.72-80.91,2.93-3.9,6.05-7.91,7.71-10.25,16.41-21.28-9.57.48-19.24,1.56c-3.65.19-6.06-1-7.23-3.57a9.67,9.67,0,0,1,0-8.1q1.81-4.24,7.18-5.23l1.46-.19q15.54-2,33.4-3A221.59,221.59,0,0,1,175.79,156a102.22,102.22,0,0,1,37.26-18.51c4-.65,7.09.31,9.18,2.88a10.73,10.73,0,0,1,2.39,8.7q-.74,4.83-6.59,6.49a84.94,84.94,0,0,0-26,11.67,174.62,174.62,0,0,0-25.34,20.36,81.32,81.32,0,0,1,27,6.64,3.5,3.5,0,0,1,1.75,3.18,3.26,3.26,0,0,1-1.75,3.07,50.25,50.25,0,0,1-17.19,4.45,154.73,154.73,0,0,1-17.78.24c-2-.06-4.06-.1-6.15-.1h-2.63Z"/><path class="cls-1" d="M239.71,228.6A7,7,0,0,1,242.3,233a6.47,6.47,0,0,1-.93,4.74q-1.37,2.1-4.59,1.9c-2.47-.19-4.92-.45-7.32-.78a77.32,77.32,0,0,0-10.4-.83,29,29,0,0,0-10.7,2.1,61.17,61.17,0,0,0-16.4,9.77,190.76,190.76,0,0,0-23.74,26c-.91,2-1.85,3.94-2.83,6a104.54,104.54,0,0,1-7.22,14A28.75,28.75,0,0,1,147.52,306a7.32,7.32,0,0,1-6.3.44,7.23,7.23,0,0,1-4.25-4.74,28.06,28.06,0,0,1,1.91-18.55,108.19,108.19,0,0,1,9.81-17.29q1.67-2.53,3.13-4.88,7-11.23,14.35-22.36,7.53-11.24,14.65-22.76,3.72-5.27,9-4.73a11.14,11.14,0,0,1,8.3,4.78q3,4.25,0,10l-.78,1.37c-.26.45-.52.88-.78,1.27a46.36,46.36,0,0,1,21.38-7Q228.87,220.88,239.71,228.6Z"/><path class="cls-1" d="M408,227.72A371.7,371.7,0,0,1,342.44,278a154.51,154.51,0,0,1-26.22,12.75q-14.7,5.61-28.46,2.58-11.73-3.4-17-12a34.18,34.18,0,0,1-5-19.38,48.53,48.53,0,0,1,5.37-20.85,64,64,0,0,1,9.66-12.7A75.49,75.49,0,0,1,296,215.85a40.36,40.36,0,0,1,17.87-6.15q9.33-.82,14.79,7.18,6,10-1.12,22.46a58.46,58.46,0,0,1-18.94,20.31,80.64,80.64,0,0,1-23.69,10.94q4.11,7.32,15.82,5.52t27.15-9.28a343.46,343.46,0,0,0,30.86-17q15.44-9.53,27-17.63T401.23,221a5.26,5.26,0,0,1,8.06,2.3Q410.11,225.47,408,227.72Zm-106.54,5.76a43.5,43.5,0,0,0-14.85,16.8A44.5,44.5,0,0,0,300,242.22q7.19-5.91,8.5-8.94c.88-2,.63-2.94-.73-2.78S304.29,231.66,301.43,233.48Z"/><path class="cls-1" d="M517.64,227.72A371.7,371.7,0,0,1,452.11,278a154.51,154.51,0,0,1-26.22,12.75q-14.7,5.61-28.47,2.58-11.71-3.4-17-12a34.33,34.33,0,0,1-5-19.38,48.82,48.82,0,0,1,5.37-20.85,64.5,64.5,0,0,1,9.67-12.7,75.49,75.49,0,0,1,15.29-12.55,40.36,40.36,0,0,1,17.87-6.15q9.31-.82,14.79,7.18,6,10-1.12,22.46a58.49,58.49,0,0,1-19,20.31,80.59,80.59,0,0,1-23.68,10.94q4.11,7.32,15.82,5.52t27.15-9.28a344.84,344.84,0,0,0,30.86-17q15.43-9.53,27-17.63T510.9,221a5.08,5.08,0,0,1,4.83-.78,5.13,5.13,0,0,1,3.23,3.08Q519.79,225.47,517.64,227.72ZM411.1,233.48a43.42,43.42,0,0,0-14.85,16.8,44.62,44.62,0,0,0,13.43-8.06q7.19-5.91,8.5-8.94t-.74-2.78C416.08,230.67,414,231.66,411.1,233.48Z"/><path class="cls-1" d="M659.14,2.13A5.83,5.83,0,0,1,665.2.23a8.33,8.33,0,0,1,5.08,3.9,5.71,5.71,0,0,1-.3,6.3q-35,50.3-67.87,102.44-17.67,27.75-35.55,55-22.26,33.69-43.94,67.77,12.79-8.88,25.1-10.94T569,233a30.22,30.22,0,0,1,5.46,9.87,34.55,34.55,0,0,1,1.67,10.64q7.41-3.31,15.33-7,17.09-7.92,34.37-15.33a280.81,280.81,0,0,1,32-11.72,4.29,4.29,0,0,1,3.57.88,6.45,6.45,0,0,1,2.34,3,2.2,2.2,0,0,1-.63,2.74,392.19,392.19,0,0,1-40.24,23.73q-22.26,11.52-43.16,21.48c-3.19,1.57-6.28,3.06-9.28,4.5a132.28,132.28,0,0,1-20.07,29.68A267.63,267.63,0,0,1,524.77,331a263.1,263.1,0,0,1-21.49,17.09q-6.82,5-14.89,9.72a54.26,54.26,0,0,1-16.6,6.49,27,27,0,0,1-16.94-2,9.33,9.33,0,0,1-5.38-8.5,27,27,0,0,1,2.45-11.42,33.23,33.23,0,0,1,5.27-8.79,272,272,0,0,1,44.63-38.43,430.69,430.69,0,0,1,54.1-32,38.08,38.08,0,0,0,1-10.74q-1.57-11.34-12.16-8.45T521.2,256.14a256,256,0,0,0-21.53,17,160.35,160.35,0,0,1-10.5,17.09A48.53,48.53,0,0,1,475,303.6a5.16,5.16,0,0,1-5.42,0,5.77,5.77,0,0,1-2.88-4.74,52.91,52.91,0,0,1,6.84-24.56,187.94,187.94,0,0,1,14.65-22.61q4.2-5.76,7.81-11.23,30.77-47.26,62.4-94,12.69-18.94,25.39-38.28,17.78-27.34,36.33-54.25T659.14,2.13ZM484.24,339.34q12.3-6.93,28.32-19.73A186.94,186.94,0,0,0,541.37,291c-.78.46-1.6.91-2.44,1.37-1.37.71-2.7,1.46-4,2.24q-21.18,12.4-41.21,26.57c-2.54,1.88-5.51,4.28-8.93,7.17s-6.58,5.8-9.47,8.69a43.39,43.39,0,0,0-6,6.94q-1.62,2.58,1.61,1.85T484.24,339.34Z"/><path class="cls-1" d="M632.68,298.23q-9.87-3.53-11.92-14.46t4.89-24.31a138.85,138.85,0,0,1,16.7-25.1,210.45,210.45,0,0,1,16.3-17.87q4.89-4.2,9.72-2.39a11,11,0,0,1,6.69,6.68q1.86,4.89-2.25,9.87-2.92,3.12-6.25,6.54A170.87,170.87,0,0,0,652.45,253a45,45,0,0,0-8.83,18q-1.27,8.4,5.51,8.64t16.8-3.76q10-4,34.91-20.9t49-34.37a5.22,5.22,0,0,1,5.56.44,5.9,5.9,0,0,1,.2,9Q737.08,242.57,720,256.53q-12.3,10-25.19,19.33l-.88.69q-22.75,16.5-37.06,20.85T632.68,298.23Zm48.53-94.14a10.17,10.17,0,0,1-4.29-5.57,8.75,8.75,0,0,1-.59-6.25,19.27,19.27,0,0,1,7.91-9.91,12.27,12.27,0,0,1,12.21-.83,12.7,12.7,0,0,1,6.35,9.57,11.65,11.65,0,0,1-3.72,10.84,17.71,17.71,0,0,1-8.59,4.05A13.11,13.11,0,0,1,681.21,204.09Z"/><path class="cls-1" d="M864.81,227.72A371.7,371.7,0,0,1,799.28,278a154.51,154.51,0,0,1-26.22,12.75q-14.7,5.61-28.47,2.58-11.72-3.4-17-12a34.25,34.25,0,0,1-5-19.38,48.82,48.82,0,0,1,5.37-20.85,64.5,64.5,0,0,1,9.67-12.7,75.43,75.43,0,0,1,15.28-12.55,40.44,40.44,0,0,1,17.88-6.15q9.31-.82,14.79,7.18,6,10-1.12,22.46a58.49,58.49,0,0,1-18.95,20.31,80.59,80.59,0,0,1-23.68,10.94q4.1,7.32,15.82,5.52t27.15-9.28a346.23,346.23,0,0,0,30.86-17q15.42-9.53,27-17.63T858.07,221a5.08,5.08,0,0,1,4.83-.78,5.13,5.13,0,0,1,3.23,3.08Q867,225.47,864.81,227.72Zm-106.55,5.76a43.47,43.47,0,0,0-14.84,16.8,44.62,44.62,0,0,0,13.43-8.06c4.78-3.94,7.62-6.92,8.49-8.94s.64-2.94-.73-2.78S761.13,231.66,758.26,233.48Z"/><path class="cls-1" d="M987.37,231.43a509,509,0,0,0-51.91,21A375.54,375.54,0,0,0,887,280.55,30,30,0,0,1,891.56,297q-.39,22.35-19.43,35.84A156.22,156.22,0,0,1,856.51,343,103.27,103.27,0,0,1,836,352.18q-10.74,3.46-19.39,1.27t-12.15-13.52q-2.44-10.85,5.85-21.68a105.83,105.83,0,0,1,20.56-20.07q12.25-9.23,21.53-15.09,2.05-1.36,3.62-2.44c-.59-.65-1.14-1.3-1.66-2a72.9,72.9,0,0,1-8.84-13.13,50,50,0,0,1-4.64-15q-1.75-16.5,9.23-28.08a56.34,56.34,0,0,1,25.54-15.77q6.15-1.46,9.47,1.91a10.9,10.9,0,0,1,3.12,8.44,11.53,11.53,0,0,1-4.59,8.7q-11.32,8.88-14,16a16.88,16.88,0,0,0,.1,13.33,52.46,52.46,0,0,0,8,12.4,481.23,481.23,0,0,1,51.9-27q24.66-10.83,54.54-20.7,3.81-1,5.81,1.37a6.64,6.64,0,0,1,1.52,5.56Q991,229.87,987.37,231.43ZM860.8,319.12q9.38-8.1,10.26-14.74t-2.84-11.13q-12.19,8.29-23.43,17.67c-.72.59-1.4,1.17-2,1.76a112.62,112.62,0,0,0-12.6,11.72q-13,15.62,4.15,9.23T860.8,319.12Z"/></g></g></svg>