<svg xmlns="http://www.w3.org/2000/svg" viewBox="0 0 1566.95 668.61"><defs><style>.cls-1{fill:#fff;}</style></defs><title>Ativo 45</title><g id="Camada_2" data-name="Camada 2"><g id="Camada_1-2" data-name="Camada 1"><path class="cls-1" d="M510.5,105.41q7.51-8.88,16.24-8.71Q544.17,73.8,532.55,57T408.9,63.72q-112,23.58-161.07,56.56t-55.54,61.53q-6.49,28.53,68.19,109.54T350,410.64q51.09-16.58,101.26-36.23A921.6,921.6,0,0,0,550,328.78q7.51-3.58,13,.25a14.37,14.37,0,0,1,6.24,10.52q.76,6.66-6.24,11.27A799.33,799.33,0,0,1,462.39,401q-51.18,21.12-104,38.37,9.92,43.06-8.54,83.83t-76.22,76.13q-49,29.73-100.92,43.92T64.8,652.8q-33-4.27-49.22-18.2T0,596.75q-1-37.1,45.2-68.45t138-62.8Q238.77,446,294.31,428.58q14.54-4.6,19.83-5.47-15.21-40.83-95.7-122.61T148.2,170.18Q159.48,106.79,275.52,63T495.46,6Q558-.88,582.79,25.18t11.54,64.6q-13.25,38.53-64.35,69.3-13.5,7.17-23.41,1.36T494,142.67q-2.65-12,5.38-23.24Q505,112.43,510.5,105.41ZM244.16,573.16q88.95-51.61,78.18-121.85-8,2.56-23.75,7.52-21.37,6.84-43.07,13.85l-12.3,4.1q-28.2,8.72-56.14,19.14a616.45,616.45,0,0,0-57.51,25,397,397,0,0,0-59.65,36.83Q39.85,580,39.42,597.09T67.53,621Q155.21,624.78,244.16,573.16Z"/><path class="cls-1" d="M756.39,336.81a13.88,13.88,0,0,1,10.42-.68q5.13,1.71,6.84,5.47t-3.25,7.34a1105.06,1105.06,0,0,1-95.53,55.89q-52.8,27.69-93,45.12a285.75,285.75,0,0,1-32,12.22,113.86,113.86,0,0,1-36.57,5.63q-18.21-.26-31-12.39-20-21.36-14.87-46.48t25.38-47.51A160.9,160.9,0,0,1,538.32,326Q563.61,312.88,584,315.7t25.64,28.12q1.36,11.1-5.56,17a18.4,18.4,0,0,1-15.63,4.44q-8.71-1.44-12.48-12.21-2.22-5.48-14.27,2.73T535.5,379a173.41,173.41,0,0,0-23.07,30.25q-9,15.21-5.13,23.67t27.78,3.68a272,272,0,0,0,54.17-17.78q46.14-21,77.08-36.31t62.72-31.71Z"/><path class="cls-1" d="M1006.55,322.28q4.62-2,8.37,1.88a10.49,10.49,0,0,1,3.17,8.81,11.17,11.17,0,0,1-4.36,7.77q-11.46,8.89-37.6,24.1a615.48,615.48,0,0,1-57.59,29.31q-31.45,14.1-55.71,12t-25-27.43a17.56,17.56,0,0,0-1.53,1.37q-18.47,16.76-40.85,35.12a314.15,314.15,0,0,1-44.09,30.67q-21.71,12.32-38.28,10.86t-23.41-24.36q-6.33-26,7.77-50.5t39.65-42q25.54-17.52,53.49-22.56t49.3,7.78q5.64,3.76,7.18,8.89c1-.57,2-1.2,3.08-1.88a21.77,21.77,0,0,1,4.44-2.57,15.92,15.92,0,0,1,10.68-.77,15.21,15.21,0,0,1,8.89,5.81q3.16,4.37.94,10.68-8.55,22.4,2.14,26.32t28.54-2a327.76,327.76,0,0,0,39.56-16.41Q967.08,342.62,1006.55,322.28ZM729.18,407.05q-2.56,12.13.43,12.9t14.19-5.55Q755,408.07,779,389.11a398.77,398.77,0,0,0,40.08-35.72q-18-5.81-37.69,1.28a85.06,85.06,0,0,0-34.69,23.67Q731.75,394.92,729.18,407.05Z"/><path class="cls-1" d="M1047.53,305.88q-29.05,33.66-54,68.87t-43.92,64.09q-5.29,8.21-10.09,15.38-30.75,46.65-58.44,95.19-33.33,58.44-71.27,113.65a13.93,13.93,0,0,1-11,5.55,14.72,14.72,0,0,1-10.85-4q-4.28-4.1-1.71-11.45a968.86,968.86,0,0,1,81.52-153.38q48-73.74,101-141.59,5.13-6.82,10.59-13.84,13.5-17.94,28.71-37.26-16.74.87-33.66,2.74-9.57.51-12.65-6.24a16.89,16.89,0,0,1,.09-14.18q3.17-7.44,12.56-9.15c.91-.11,1.76-.22,2.56-.34q27.18-3.42,58.45-5.3a386.44,386.44,0,0,1,57.51-54.6q30.84-23.67,65.19-32.38,10.61-1.71,16.07,5a18.78,18.78,0,0,1,4.19,15.21q-1.29,8.46-11.54,11.36-22.9,5.64-45.54,20.43a303.64,303.64,0,0,0-44.35,35.63,141.82,141.82,0,0,1,47.16,11.62,6.08,6.08,0,0,1,3.08,5.55,5.72,5.72,0,0,1-3.08,5.39,87.64,87.64,0,0,1-30.07,7.77,268.46,268.46,0,0,1-31.11.43q-5.29-.17-10.76-.17h-4.62Z"/><path class="cls-1" d="M1297.52,345.53a650.88,650.88,0,0,1-114.67,88,270.61,270.61,0,0,1-45.89,22.3q-25.73,9.82-49.81,4.53-20.52-6-29.83-21a60,60,0,0,1-8.8-33.92,85.47,85.47,0,0,1,9.4-36.49q5.13-9.57,16.92-22.22a131.28,131.28,0,0,1,26.75-22A70.38,70.38,0,0,1,1132.86,314q16.32-1.46,25.89,12.56,10.43,17.43-2,39.3a102.13,102.13,0,0,1-33.16,35.55q-20.76,13.68-41.44,19.14,7.18,12.82,27.69,9.66T1157.39,414a605.25,605.25,0,0,0,54-29.73q27-16.67,47.25-30.85t27.09-19.66q4.27-2.89,8.46-1.36a9,9,0,0,1,5.64,5.38Q1301.28,341.59,1297.52,345.53Zm-186.45,10.08q-16.23,10.61-26,29.39,10.94-3.75,23.49-14.09t14.87-15.64c1.54-3.53,1.11-5.16-1.28-4.87S1116.08,352.42,1111.07,355.61Z"/><path class="cls-1" d="M1521,4.93q6.49-6.84,13.59-4.19a17,17,0,0,1,10.08,10.08q3,7.44-2.82,15.13a3074.7,3074.7,0,0,0-246.43,329.49q-40.85,64.43-76.91,132.44-33,57.43-44.52,77.85t-46.74,75.79q-2.57,3.42-6,3.51a7.54,7.54,0,0,1-5.81-2.4q-2.38-2.48-1.71-6.75,3.93-28,32.64-88.61t57.94-108.69q29.22-48.1,60.5-92.2,12.64-17.94,24.44-35.2Q1343.64,231.71,1401,154.8T1521,4.93Z"/><path class="cls-1" d="M1343.43,468.92q-17.27-6.17-20.85-25.3t8.54-42.55a243.41,243.41,0,0,1,29.22-43.92q17.1-20.5,28.54-31.28,8.55-7.33,17-4.18a19.26,19.26,0,0,1,11.71,11.7q3.24,8.55-3.93,17.26-5.13,5.48-10.94,11.45a298.35,298.35,0,0,0-24.7,27.69,78.73,78.73,0,0,0-15.46,31.44q-2.22,14.7,9.65,15.13t29.4-6.58q17.51-7,61.09-36.57t85.79-60.16q5.64-2.39,9.75.77a9.34,9.34,0,0,1,3.84,8.29c-.17,3.42-1.34,5.92-3.5,7.52q-32.47,21.87-62.38,46.31-21.54,17.43-44.09,33.84c-.46.34-1,.74-1.54,1.2q-39.82,28.88-64.86,36.48T1343.43,468.92Zm84.93-164.75a17.78,17.78,0,0,1-7.52-9.74,15.36,15.36,0,0,1-1-10.94,33.8,33.8,0,0,1,13.84-17.35q9.91-6.4,21.36-1.45,9.4,5.47,11.11,16.75a20.38,20.38,0,0,1-6.49,19,31.13,31.13,0,0,1-15,7.09A22.87,22.87,0,0,1,1428.36,304.17Z"/><path class="cls-1" d="M1565.39,446q4.27,12.48-3.16,20.85T1542.15,474a17.87,17.87,0,0,1-11-5.38,17.26,17.26,0,0,1-5.21-12.56v-.86a5.38,5.38,0,0,1,0-1.88,24,24,0,0,1,4.44-13.33,17.45,17.45,0,0,1,10.17-7.09,19.33,19.33,0,0,1,12.22,1.11v.17h.17a19.54,19.54,0,0,1,5.3,3.25,2.81,2.81,0,0,1,.68.51,12.25,12.25,0,0,1,1.88,1.54A23.35,23.35,0,0,1,1565.39,446Z"/></g></g></svg>