<svg xmlns="http://www.w3.org/2000/svg" viewBox="0 0 1117.72 457.66"><defs><style>.cls-1{fill:#fff;}</style></defs><title>Ativo 4</title><g id="Camada_2" data-name="Camada 2"><g id="Camada_1-2" data-name="Camada 1"><path class="cls-1" d="M254.51,224.37a110.78,110.78,0,0,1-16.41,24.81,73.44,73.44,0,0,1-23.78,18.5,41.79,41.79,0,0,1-28.66,2.88q-7.32-2.34-8.16-7.91a12.44,12.44,0,0,1,3.08-10.2q3.9-4.63,11.13-4,11.63.78,22.81-8.45t16.84-18.8q5.67-9.66,5-12.4c-.45-1.82-2.1-2.23-4.93-1.22a49.6,49.6,0,0,0-9.23,4.59q-5,3.07-7.91,5.12a1.46,1.46,0,0,1-.39.3,416.2,416.2,0,0,0-40.23,31.34,401,401,0,0,0-31.89,32q-15,16.85-29.34,34.32-8.51,10.35-17.09,20.51Q55.48,397.82,11,454.35q-2.53,2.94-5.52,2.1a7.37,7.37,0,0,1-4.59-3.76,6.72,6.72,0,0,1-.14-6.25A1066.4,1066.4,0,0,1,59.58,345.66q32.52-49.32,66.61-97.46Q150.2,214,173.26,180q2.93-3.81,6.88-3.42a8.09,8.09,0,0,1,6.15,3.56q2.21,3.18,0,7.47c-1.43,2.35-2.83,4.69-4.19,7q-16.12,26.85-32.52,54.1A266.39,266.39,0,0,1,189,213.53a152.42,152.42,0,0,1,45.41-22.65q10.44-2.64,16.11,2.68t6.64,14.11A31.27,31.27,0,0,1,254.51,224.37Z"/><path class="cls-1" d="M370.13,202.11a7,7,0,0,1,2.59,4.39,6.47,6.47,0,0,1-.93,4.74q-1.37,2.1-4.59,1.9-3.7-.28-7.32-.78a75.72,75.72,0,0,0-10.4-.83,29,29,0,0,0-10.7,2.1,61.17,61.17,0,0,0-16.4,9.77,190,190,0,0,0-23.73,26c-.91,2-1.86,3.94-2.84,6a104.54,104.54,0,0,1-7.22,14,28.67,28.67,0,0,1-10.65,10.26,7.32,7.32,0,0,1-6.3.44,7.22,7.22,0,0,1-4.24-4.74,28,28,0,0,1,1.9-18.55,107.47,107.47,0,0,1,9.82-17.29q1.65-2.53,3.12-4.88,7-11.24,14.36-22.36,7.51-11.23,14.64-22.76,3.72-5.26,9-4.73a11.11,11.11,0,0,1,8.3,4.78q3,4.24,0,10l-.78,1.37c-.26.45-.52.88-.78,1.27a46.36,46.36,0,0,1,21.38-7Q359.29,194.39,370.13,202.11Z"/><path class="cls-1" d="M529.51,195.56q3-2.24,5.9-1.17a6.47,6.47,0,0,1,4,3.86c.72,1.86.19,3.7-1.56,5.52q-14.46,13.38-37.6,21.58t-43.85,1.86A85.87,85.87,0,0,1,439,252.45,50.87,50.87,0,0,1,413.1,267q-10.16,1.56-16-4.2A27.24,27.24,0,0,1,389.52,248a36.8,36.8,0,0,1,.63-17.19,74.55,74.55,0,0,1,15.48-27.88A58.46,58.46,0,0,1,432,185.7a7.8,7.8,0,0,1,2.24-1,7.14,7.14,0,0,1,1.08-.09h.88a6,6,0,0,1,1-.3,5.89,5.89,0,0,1,1.47-.39,8.89,8.89,0,0,1,4.39.49q9.48,1.17,14.16,8t4.2,16.65a57.25,57.25,0,0,0,11.28,3.76,42.29,42.29,0,0,0,10,1.22A72.43,72.43,0,0,0,529.51,195.56ZM410.76,248.3a45,45,0,0,0,16.55-10.4A56.46,56.46,0,0,0,438.88,222q1.08-2.25,2.25-4.88a37.24,37.24,0,0,1-3.62-4.2c-1.62-2.54-2.1-4.85-1.41-6.94a8.61,8.61,0,0,1,4-4.88h-.88q-18.45,6.26-26.85,24.22-.39.89-1.47,4.59c-.71,2.47-1.35,5.21-1.9,8.2a31.47,31.47,0,0,0-.64,7.57C408.54,247.76,409.32,248.63,410.76,248.3Z"/><path class="cls-1" d="M613.69,197.81a894,894,0,0,0-97.86,68.95q-18.75,38.37-40.67,75a598.09,598.09,0,0,1-47.51,68.36c-.13.19-.29.45-.49.78q-3.42,4.29-12.89,15a188.18,188.18,0,0,1-21.19,20.45q-11.71,9.72-21.73,11.14T357,444.78q-4-15.91,2.19-32.76a132,132,0,0,1,18.12-32.91,292.83,292.83,0,0,1,25.15-29.69q13.23-13.62,23.29-23,29.49-28.12,63.57-55.66,23-40.42,42.78-82.52,2.82-5.18,7.42-4.74a10.5,10.5,0,0,1,7.61,4.5q3,4,.88,9.62Q538.49,219.3,528,241.56a840.85,840.85,0,0,1,79.88-51.17q3.42-1.37,5.52.19a4.52,4.52,0,0,1,2,3.81A4,4,0,0,1,613.69,197.81ZM432.05,369.69q18.45-29.7,35.44-60.06c.59-1.05,1.18-2.05,1.76-3a3.5,3.5,0,0,0,.2-.49q-6.15,5.47-12.89,11.33Q438.79,332.57,420.81,350A239.33,239.33,0,0,0,389.42,387a106.51,106.51,0,0,0-17.34,41.65q-1,7.13,3.08,5.62t10.79-8q6.74-6.5,13.67-14.36t11.53-13.43c1.69-2,2.93-3.48,3.71-4.39s1-1.11.78-.59Q424.13,381.79,432.05,369.69ZM543.86,173.2a11.93,11.93,0,0,1-4.15-5.61,8.35,8.35,0,0,1,.83-6.89,7.51,7.51,0,0,1,1.08-1.37,4.09,4.09,0,0,1,.58-.48,2.3,2.3,0,0,0,.29-.59,3.08,3.08,0,0,1,.59-.78,7.45,7.45,0,0,1,4-2.35A9.66,9.66,0,0,1,560.61,163a11.89,11.89,0,0,1-2.49,8.5q-4.3,4.69-9.18,3.61a5,5,0,0,1-1.86-.39,3,3,0,0,1-.58-.19.7.7,0,0,0-.29-.1,2.47,2.47,0,0,0-.59-.29,2.32,2.32,0,0,1-1.07-.49C544.28,173.49,544.06,173.33,543.86,173.2Z"/><path class="cls-1" d="M717.1,201.23a372.11,372.11,0,0,1-65.52,50.29,156,156,0,0,1-26.22,12.75q-14.7,5.61-28.47,2.58-11.71-3.41-17-12a34.18,34.18,0,0,1-5-19.38,48.53,48.53,0,0,1,5.37-20.85,64.11,64.11,0,0,1,9.67-12.7,74.82,74.82,0,0,1,15.28-12.55A40.28,40.28,0,0,1,623,183.21q9.33-.83,14.8,7.18,6,10-1.13,22.46a58.46,58.46,0,0,1-18.94,20.31,80.71,80.71,0,0,1-23.68,10.94q4.1,7.32,15.82,5.52T637,240.34a346.23,346.23,0,0,0,30.86-17q15.42-9.53,27-17.63t15.48-11.23a5.25,5.25,0,0,1,8,2.3C719,198.25,718.54,199.73,717.1,201.23ZM610.56,207a43.47,43.47,0,0,0-14.84,16.8,44.58,44.58,0,0,0,13.42-8.06q7.18-5.91,8.5-8.94t-.73-2.78C615.54,204.17,613.43,205.17,610.56,207Z"/><path class="cls-1" d="M1113.59,89.22a4.75,4.75,0,0,1,3.9,3.51,6.81,6.81,0,0,1-.73,5.23,5.18,5.18,0,0,1-4.73,2.58q-18-.58-35.84-1.26-75.69-3.42-150.3-2.54-41.4,57.51-81.64,115.82-17.38,25.58-34.18,51.95-18.55,29.21-38.13,57.62a628.79,628.79,0,0,1-42,54.29c-1.62,1.7-3.3,2.28-5,1.76a6.52,6.52,0,0,1-4-3.32,6,6,0,0,1-.1-5.47A590.66,590.66,0,0,1,764,294.64q24.56-36.28,50.63-71.24,14.75-20,28.91-39.85,29-40.81,54.59-75.49-46.78,51.85-88.58,93.17t-76.27,58.89A95.14,95.14,0,0,1,704,269a34.18,34.18,0,0,1-26.17-7q-13.58-15.14-6.35-32.76t24.27-30.76q17-13.14,33-14.56t20,15.87c.52,4.11-.5,7.26-3.07,9.48a10.27,10.27,0,0,1-8.69,2.54c-3.23-.53-5.52-2.8-6.89-6.84q-1.37-3-8.05,1.32a91,91,0,0,0-14.65,12.4,86.51,86.51,0,0,0-12.94,16.41q-5,8.34-2.83,13.33t15.62,3q21.68-4.09,51.81-27.49t63.52-57.08Q856,133.16,887.51,98.3a805.25,805.25,0,0,0-93.94,10.35c-3.26.33-5.75-.59-7.47-2.73a8.72,8.72,0,0,1-2-7q.58-3.8,5.37-5A1139.22,1139.22,0,0,1,903.63,80.43q7.71-8.5,14.84-16.51Q955.1,22.61,974.72,3.57a.26.26,0,0,0,.1-.19.09.09,0,0,0,.1-.1C977,.81,979.42-.27,982.19.06a8.52,8.52,0,0,1,6.35,3.66q2.19,3.16-.44,7.27-21.78,29.79-43.36,59.77-2.84,3.9-5.66,7.91A876,876,0,0,1,1113.59,89.22Z"/><path class="cls-1" d="M1038.88,204.94a509.74,509.74,0,0,0-51.9,21,374.2,374.2,0,0,0-48.49,28.12,30,30,0,0,1,4.59,16.41q-.39,22.35-19.43,35.84A156.52,156.52,0,0,1,908,316.51a103,103,0,0,1-20.51,9.18q-10.74,3.46-19.38,1.27T856,313.44q-2.44-10.85,5.86-21.68a105.55,105.55,0,0,1,20.56-20.07q12.25-9.22,21.53-15.09,2.05-1.37,3.61-2.44c-.58-.65-1.14-1.3-1.66-1.95A73.57,73.57,0,0,1,897,239.07a49.71,49.71,0,0,1-4.64-15q-1.77-16.5,9.23-28.08a56.3,56.3,0,0,1,25.53-15.77q6.15-1.46,9.48,1.91a10.9,10.9,0,0,1,3.12,8.44,11.53,11.53,0,0,1-4.59,8.7q-11.32,8.88-14,16a16.93,16.93,0,0,0,.09,13.33,52.77,52.77,0,0,0,8,12.4,482.26,482.26,0,0,1,51.91-27.05q24.66-10.83,54.54-20.7c2.54-.65,4.47-.19,5.81,1.37a6.64,6.64,0,0,1,1.51,5.56Q1042.5,203.38,1038.88,204.94ZM912.32,292.63q9.38-8.1,10.25-14.74t-2.83-11.13q-12.21,8.3-23.44,17.67c-.71.59-1.4,1.17-2,1.76a113.49,113.49,0,0,0-12.6,11.72q-13,15.61,4.15,9.23T912.32,292.63Z"/></g></g></svg>