<svg xmlns="http://www.w3.org/2000/svg" viewBox="0 0 598.94 649.4"><defs><style>.cls-1{fill:#fff;}</style></defs><title>Ativo 46</title><g id="Camada_2" data-name="Camada 2"><g id="Camada_1-2" data-name="Camada 1"><path class="cls-1" d="M510.5,100.88Q518,92,526.74,92.17q17.43-22.9,5.81-39.74T408.9,59.18q-112,23.59-161.07,56.57t-55.54,61.52q-6.49,28.54,68.19,109.55T350,406.11q51.09-16.58,101.26-36.23A921.6,921.6,0,0,0,550,324.25q7.51-3.6,13,.25A14.37,14.37,0,0,1,569.21,335q.76,6.67-6.24,11.28a799.33,799.33,0,0,1-100.58,50.16q-51.18,21.1-104,38.37,9.92,43.07-8.54,83.82t-76.22,76.14q-49,29.73-100.92,43.92A309.77,309.77,0,0,1,64.8,648.27q-33-4.28-49.22-18.2T0,592.22q-1-37.1,45.2-68.45t138-62.8q55.54-19.49,111.08-36.92,14.54-4.6,19.83-5.47Q298.93,377.74,218.44,296T148.2,165.65Q159.48,102.26,275.52,58.5T495.46,1.42Q558-5.42,582.79,20.65t11.54,64.59q-13.25,38.55-64.35,69.3-13.5,7.19-23.41,1.37T494,138.14q-2.65-12,5.38-23.24Q505,107.9,510.5,100.88ZM244.16,568.63Q333.11,517,322.34,446.78q-8,2.57-23.75,7.52-21.37,6.84-43.07,13.84l-12.3,4.1Q215,481,187.08,491.39a613.81,613.81,0,0,0-57.51,25,397,397,0,0,0-59.65,36.83q-30.08,22.21-30.5,39.31t28.11,23.92Q155.21,620.25,244.16,568.63Z"/></g></g></svg>