<svg xmlns="http://www.w3.org/2000/svg" viewBox="0 0 1246.45 299.71"><defs><style>.cls-1{fill:#212529;}</style></defs><title>Ativo 2</title><g id="Camada_2" data-name="Camada 2"><g id="Camada_1-2" data-name="Camada 1"><path class="cls-1" d="M69.6,125.71q0,12,7.2,19.6a66.81,66.81,0,0,0,18,13.2q10.8,5.61,23.4,11a115.94,115.94,0,0,1,23.4,13.4,67.56,67.56,0,0,1,18,20.2q7.2,12.21,7.2,31a49.51,49.51,0,0,1-7.8,27.6,68.3,68.3,0,0,1-21,20.4,100.71,100.71,0,0,1-30.4,12.6,149.6,149.6,0,0,1-35.6,4.2q-24.4,0-40.6-4.2t-24.2-7.8Q0,284.12,0,276.11v-38.8a10.73,10.73,0,0,1,3.4-7.8,10.73,10.73,0,0,1,7.8-3.4q7.59,0,10.4,7.6a124.91,124.91,0,0,0,6,13.6,89.68,89.68,0,0,0,10,15.6,56.29,56.29,0,0,0,14.2,12.8,34.67,34.67,0,0,0,19,5.2q12.8,0,19.8-8.6a31,31,0,0,0,7-20.2q0-12-7.2-19a71.53,71.53,0,0,0-18-12.4q-10.8-5.4-23.6-10.6a111.88,111.88,0,0,1-23.6-13,65,65,0,0,1-18-20Q0,164.91,0,145.71q0-15.19,6.8-26.4a57,57,0,0,1,18.4-18.6,86.69,86.69,0,0,1,26.6-11,135.9,135.9,0,0,1,31.8-3.6q22.8,0,40.8,4.4t27.2,7.6a11.2,11.2,0,0,1,5.8,4.4,11.86,11.86,0,0,1,2.2,6.8v31.2a9.56,9.56,0,0,1-9.6,9.6,9.1,9.1,0,0,1-8.4-4.8,136.86,136.86,0,0,0-7.4-11.6,101.54,101.54,0,0,0-11.6-13.8,75.62,75.62,0,0,0-14.6-11.4,32.88,32.88,0,0,0-17.2-4.8,25,25,0,0,0-14.6,4.6Q69.6,112.92,69.6,125.71Z"/><path class="cls-1" d="M380.39,224.91a9.65,9.65,0,0,1,5.2,6,10.56,10.56,0,0,1-.8,8,150.86,150.86,0,0,1-10.8,17.6,100.55,100.55,0,0,1-18.8,20,110,110,0,0,1-27.8,16.4q-16.2,6.79-37.8,6.8-24,0-43.4-7.8a93.13,93.13,0,0,1-33-22,98.71,98.71,0,0,1-21-33.6q-7.4-19.4-7.4-43a113.8,113.8,0,0,1,8-43,97.34,97.34,0,0,1,22.4-33.8,104.45,104.45,0,0,1,34.4-22q20-8,44-8,26,0,47.4,8.6t36.2,29.4a34.19,34.19,0,0,1,6,14.8,33.25,33.25,0,0,1-1.2,15.4,35.43,35.43,0,0,1-8,13.4,33.24,33.24,0,0,1-13.6,8.8,37.15,37.15,0,0,1-13.6,2.2,34.25,34.25,0,0,1-12.8-2.8,33,33,0,0,1-10.8-7.6,32.28,32.28,0,0,1-7.2-11.8,176.28,176.28,0,0,0-10.2-22,65.64,65.64,0,0,0-10.2-14,30.77,30.77,0,0,0-10.4-7.2,28.82,28.82,0,0,0-10.4-2q-11.6,0-18.6,10.6t-9.2,26.6a120,120,0,0,0,.6,34.4,111.66,111.66,0,0,0,11,34.4,75.87,75.87,0,0,0,22.4,26.6q14.2,10.6,34.6,10.6a49.75,49.75,0,0,0,17.6-3,78.43,78.43,0,0,0,14.6-7.2,66.61,66.61,0,0,0,11.4-9q4.8-4.8,8-8.4a10.86,10.86,0,0,1,6-3.6A10,10,0,0,1,380.39,224.91Z"/><path class="cls-1" d="M608,277.31a9.74,9.74,0,0,1,2.8,7.2,11.64,11.64,0,0,1-11.2,11.2H554a29,29,0,0,1-28.4-23.2,133,133,0,0,1-27.8,18.8,77.44,77.44,0,0,1-36.2,8.4,93.38,93.38,0,0,1-25.6-3.4,62.73,62.73,0,0,1-20.8-10,46.47,46.47,0,0,1-13.8-16.6q-5-10-5-23.2a45.9,45.9,0,0,1,6.8-24.6,68.47,68.47,0,0,1,18-19.2,128,128,0,0,1,25.2-14.2,225.61,225.61,0,0,1,28.4-10q14.4-4,27.4-6.4t22.6-3.6v-12.8q0-14-2.8-23.8t-7.6-15.8a30.36,30.36,0,0,0-10.8-8.8,29.1,29.1,0,0,0-12.4-2.8,22.71,22.71,0,0,0-11.8,3,25.54,25.54,0,0,0-8.2,7.75,42.73,42.73,0,0,0-5.2,11.32,109.18,109.18,0,0,0-3.2,13.7,24.35,24.35,0,0,1-8.4,15.5,25.94,25.94,0,0,1-30.8,2.38,27.32,27.32,0,0,1-9.2-9.95,24.53,24.53,0,0,1,2.4-26.66Q429.6,104,452,95.27a125.31,125.31,0,0,1,46-8.76,177.35,177.35,0,0,1,37.8,3.8,77.09,77.09,0,0,1,30,13.2,64.27,64.27,0,0,1,19.8,24.8q7.2,15.41,7.2,38.2v92.8Zm-139.6-37.6q0,28.8,22.8,28.8a33.39,33.39,0,0,0,17.6-5.4,96.9,96.9,0,0,0,16-12.2v-65.2a112.86,112.86,0,0,0-19.6,5.2,65.51,65.51,0,0,0-18.2,10,50.59,50.59,0,0,0-13.4,16Q468.4,226.51,468.39,239.71Z"/><path class="cls-1" d="M688,24.91q-9.19,0-13.4,5.4a19.36,19.36,0,0,0-4.2,12.2,34.75,34.75,0,0,0,5,18.8,59.29,59.29,0,0,0,11.2,13.4,62.18,62.18,0,0,0,12,8.4,48.87,48.87,0,0,0,7.4,3.4l26.4.4a10.93,10.93,0,0,1,10.8,10.8,10.86,10.86,0,0,1-3.2,8,10.36,10.36,0,0,1-7.6,3.2l-25.6-.4v150.8l15.2,18a11.73,11.73,0,0,1,2.4,7.2,11,11,0,0,1-3.2,7.8,10.51,10.51,0,0,1-8,3.4H632a10.51,10.51,0,0,1-8-3.4,11,11,0,0,1-3.2-7.8,11.73,11.73,0,0,1,2.4-7.2l15.6-18V108.51h-7.2a11.93,11.93,0,0,1-7.6-3.6,10.38,10.38,0,0,1-3.2-7.6,11.08,11.08,0,0,1,3.2-7.8,9.41,9.41,0,0,1,8-3h6.8q0-19.2,5-34a74.46,74.46,0,0,1,14-25.2A59.84,59.84,0,0,1,679,11.51a64,64,0,0,1,26.2-5.4,41.3,41.3,0,0,1,21,5.2,76,76,0,0,1,15.8,12,22.32,22.32,0,0,1,4.6,7.8,20.93,20.93,0,0,1,1,8.6,21.2,21.2,0,0,1-2.6,8.4,20,20,0,0,1-6.2,6.8,22,22,0,0,1-9.2,3.4,19.43,19.43,0,0,1-9.2-1,22.94,22.94,0,0,1-8-5,19.62,19.62,0,0,1-5.2-8.2,44,44,0,0,0-6.8-13.4Q696,24.92,688,24.91Z"/><path class="cls-1" d="M941.19,224.91a10.45,10.45,0,0,1,5.4,6,9.94,9.94,0,0,1-.6,8,139.62,139.62,0,0,1-11,17.6,108.74,108.74,0,0,1-18.8,20,105.56,105.56,0,0,1-27.8,16.4q-16.39,6.79-38,6.8-24,0-43.4-7.8a91.1,91.1,0,0,1-32.8-22,100.43,100.43,0,0,1-20.8-33.6q-7.39-19.4-7.4-43a113.61,113.61,0,0,1,8-43,98.71,98.71,0,0,1,22.2-33.8,102.13,102.13,0,0,1,34.2-22q20-8,44-8,28.4,0,52.2,17.2t36.2,54.8a10.78,10.78,0,0,1-.6,8.8,11.62,11.62,0,0,1-6.6,6l-.4.4-118.4,43.6a82.16,82.16,0,0,0,23.4,26.8q14.59,10.8,36.6,10.8a49.75,49.75,0,0,0,17.6-3,78.43,78.43,0,0,0,14.6-7.2,66.61,66.61,0,0,0,11.4-9q4.8-4.8,8-8.4a9.82,9.82,0,0,1,12.8-2.4Zm-116-111.2q-7.2,2.4-12.2,10.8a61,61,0,0,0-7.2,20,109.23,109.23,0,0,0-1.6,25.2,113.66,113.66,0,0,0,4.6,27.2l76-28.4q-13.2-34.39-29.2-47T825.19,113.71Z"/><path class="cls-1" d="M1058.39,277.31a11.75,11.75,0,0,1,2.8,7.2,11.64,11.64,0,0,1-11.2,11.2h-81.6a11.64,11.64,0,0,1-11.2-11.2,11.69,11.69,0,0,1,2.8-7.2l15.2-18V59.71l-13.6-12a11.76,11.76,0,0,1-4.4-9.6,12.47,12.47,0,0,1,2.6-7.8,12.76,12.76,0,0,1,6.6-4.6l8.8-2.8,48.4-14.4a13.13,13.13,0,0,1,12.8,2,14,14,0,0,1,6.8,12.4v236.4Z"/><path class="cls-1" d="M1176.39,277.31a11.73,11.73,0,0,1,2.4,7.2,11,11,0,0,1-3.2,7.8,10.53,10.53,0,0,1-8,3.4h-81.2a11.64,11.64,0,0,1-11.2-11.2,9.74,9.74,0,0,1,2.8-7.2l15.2-18V138.11l-13.6-12a11.76,11.76,0,0,1-4.4-9.6q0-9.2,9.2-12.4l8.8-2.4,48.4-14.8q7.59-2,12.8,2a14,14,0,0,1,6.8,12.4v158Zm-44.8-203.2a39.56,39.56,0,0,1-15.8.8,41,41,0,0,1-14.4-5,38.74,38.74,0,0,1-11.2-9.6,31.59,31.59,0,0,1-6.2-13.4,31.64,31.64,0,0,1-.4-15,38.5,38.5,0,0,1,5.8-13.6A42.93,42.93,0,0,1,1100,7.51a41.73,41.73,0,0,1,14.8-6.6,45.21,45.21,0,0,1,15.8-.4,43.69,43.69,0,0,1,14.4,4.8,35.26,35.26,0,0,1,11.2,9.6,38.27,38.27,0,0,1,6.6,13.6,36,36,0,0,1-5.6,28.4Q1148.38,70.11,1131.59,74.11Z"/><path class="cls-1" d="M1190.38,56.69h-11.52V52.51h27.79v4.18h-11.52V86.11h-4.75Z"/><path class="cls-1" d="M1241.84,86.11l0-24.48L1229.64,82h-2.2l-12.15-20.25V86.11h-4.61V52.51h3.94l14,23.62,13.82-23.62h3.94l0,33.6Z"/></g></g></svg>